<?xml version="1.0" encoding="utf-8"?>
<!-- Generator: Adobe Illustrator 22.0.1, SVG Export Plug-In . SVG Version: 6.00 Build 0)  -->
<svg version="1.1" id="Capa_1" xmlns="http://www.w3.org/2000/svg" xmlns:xlink="http://www.w3.org/1999/xlink" x="0px" y="0px"
	 viewBox="0 0 512 512" style="enable-background:new 0 0 512 512;" xml:space="preserve">
<style type="text/css">
	.st0{fill:#006DF0;}
</style>
<path class="st0" d="M387.7,267.6c5.4-5.4,5.4-14,0-19.5c-5.3-5.4-14-5.4-19.3,0l-98.8,98.6V20.9c0-7.6-6-13.8-13.6-13.8
	c-7.6,0-13.8,6.2-13.8,13.8v325.8l-98.6-98.6c-5.4-5.4-14.2-5.4-19.5,0c-5.4,5.4-5.4,14,0,19.5l122.2,122.2c5.3,5.3,14,5.3,19.5,0
	L387.7,267.6z M484.5,357c0-7.6,6-13.6,13.6-13.6s13.8,6,13.8,13.6v134c0,7.6-6.2,13.8-13.8,13.8H13.6C6,504.9,0,498.7,0,491.1V357
	c0-7.6,6-13.6,13.6-13.6s13.8,6,13.8,13.6v120.4h457.1V357z"/>
</svg>
