<?xml version="1.0" encoding="utf-8"?>
<!-- Generator: Adobe Illustrator 22.0.1, SVG Export Plug-In . SVG Version: 6.00 Build 0)  -->
<svg version="1.1" id="Layer_1" xmlns="http://www.w3.org/2000/svg" xmlns:xlink="http://www.w3.org/1999/xlink" x="0px" y="0px"
	 viewBox="0 0 512 512" style="enable-background:new 0 0 512 512;" xml:space="preserve">
<style type="text/css">
	.st0{fill:#2196F3;}
	.st1{fill:#FFE1C2;}
	.st2{fill:#231F20;}
</style>
<rect x="11.4" y="198" class="st0" width="103" height="270"/>
<path class="st1" d="M473,209.9H354.6c-11.8,0-20.3-11.2-17.3-22.5l21.1-78.7c7.5-27.9-9.1-56.5-36.9-64l0,0
	c-8.8-2.3-17.8,2.9-20.1,11.6l-14.8,55.2c-7,26-20.5,49.9-39.5,69.1c-24,24.2-49.6,42.2-58.1,49.5l-4.2,3.6c-4.4,3.8-10.1,6-16,6
	h-54.5v186.7h54.5c5.9,0,11.5,2.1,16,6l0,0c17.7,15.3,40.3,23.8,63.8,23.8h190.1c15.2,0,27.5-12.3,27.5-27.5V422
	c0-15.2-12.3-27.5-27.5-27.5h11.4c15.2,0,27.5-12.3,27.5-27.5v-6.5c0-15.2-12.3-27.5-27.5-27.5h11.4c15.2,0,27.5-12.3,27.5-27.5
	v-6.5c0-15.2-12.3-27.5-27.5-27.5H473c15.2,0,27.5-12.3,27.5-27.5v-6.5C500.6,222.2,488.2,209.9,473,209.9z"/>
<g>
	<path class="st2" d="M473,198.4H354.6c-2.8,0-4.4-1.6-5.1-2.5c-0.7-0.9-1.8-2.9-1.1-5.6l21.1-78.7c9.1-33.9-11.1-68.9-45-78
		c-14.8-4-30.1,4.9-34.1,19.7l-14.8,55.2c-6.5,24.3-19.1,46.4-36.6,64c-17,17.2-35,31.2-46.8,40.4c-4.5,3.5-8.1,6.3-10.6,8.5
		l-4.2,3.6c-2.4,2-5.4,3.2-8.5,3.2h-43V198c0-6.3-5.1-11.4-11.4-11.4h-103C5.1,186.5,0,191.6,0,198v270c0,6.3,5.1,11.4,11.4,11.4
		h103c6.3,0,11.4-5.1,11.4-11.4v-30.2h43c3.1,0,6.1,1.1,8.5,3.2c19.8,17.1,45.1,26.6,71.3,26.6h190.1c21.5,0,39-17.5,39-39V422
		c0-8.2-2.5-15.8-6.8-22c11-6.9,18.3-19.1,18.3-33v-6.5c0-8.2-2.5-15.8-6.8-22c11-6.9,18.3-19.1,18.3-33v-6.5c0-8.2-2.5-15.8-6.8-22
		c11-6.9,18.3-19.1,18.3-33v-6.5C512,215.9,494.5,198.4,473,198.4z M103,456.5H22.9V209.4H103L103,456.5L103,456.5z M489.1,243.9
		c0,8.9-7.2,16.1-16.1,16.1h-30.8c-6.3,0-11.4,5.1-11.4,11.4s5.1,11.4,11.4,11.4h19.4c8.9,0,16.1,7.2,16.1,16.1v6.5
		c0,8.9-7.2,16.1-16.1,16.1h-33.1c-6.3,0-11.4,5.1-11.4,11.4s5.1,11.4,11.4,11.4h21.7c8.9,0,16.1,7.2,16.1,16.1v6.5
		c0,8.9-7.2,16.1-16.1,16.1h-33.7c-6.3,0-11.4,5.1-11.4,11.4s5.1,11.4,11.4,11.4h22.2c8.9,0,16.1,7.2,16.1,16.1v6.5
		c0,8.9-7.2,16.1-16.1,16.1H248.6c-20.7,0-40.7-7.5-56.3-21c-6.5-5.6-14.8-8.7-23.5-8.7h-43V251h43c8.6,0,16.9-3.1,23.4-8.7l4.2-3.6
		c2-1.8,5.6-4.5,9.7-7.7c12.3-9.6,31-24.1,49-42.4c20.2-20.4,34.9-46.1,42.4-74.2l14.8-55.2c0.7-2.7,3.4-4.2,6.1-3.5
		c21.7,5.8,34.7,28.2,28.8,49.9l-21.1,78.7c-1.3,4.7-1.3,9.5-0.3,14.1h-13.4c-6.3,0-11.4,5.1-11.4,11.4c0,6.3,5.1,11.4,11.4,11.4
		H473c8.9,0,16.1,7.2,16.1,16.1L489.1,243.9L489.1,243.9z"/>
	<path class="st2" d="M71.6,437.3c6.3,0,11.4-5.1,11.4-11.4v-11.4c0-6.3-5.1-11.4-11.4-11.4s-11.4,5.1-11.4,11.4v11.4
		C60.1,432.2,65.3,437.3,71.6,437.3z"/>
	<path class="st2" d="M201.7,266.1c-6.3,0-11.4,5.1-11.4,11.4V332c0,6.3,5.1,11.4,11.4,11.4s11.4-5.1,11.4-11.4v-54.5
		C213.1,271.3,208,266.1,201.7,266.1z"/>
	<path class="st2" d="M201.7,364.6c-6.3,0-11.4,5.1-11.4,11.4v11.3c0,6.3,5.1,11.4,11.4,11.4s11.4-5.1,11.4-11.4v-11.3
		C213.1,369.7,208,364.6,201.7,364.6z"/>
</g>
</svg>
